<svg id="visual" viewBox="0 0 900 600" width="900" height="600" xmlns="http://www.w3.org/2000/svg" xmlns:xlink="http://www.w3.org/1999/xlink" version="1.1"><rect x="0" y="0" width="900" height="600" fill="#001220"></rect><defs><linearGradient id="grad1_0" x1="33.3%" y1="0%" x2="100%" y2="100%"><stop offset="20%" stop-color="#fbae3c" stop-opacity="1"></stop><stop offset="80%" stop-color="#fbae3c" stop-opacity="1"></stop></linearGradient></defs><defs><linearGradient id="grad1_1" x1="33.3%" y1="0%" x2="100%" y2="100%"><stop offset="20%" stop-color="#fbae3c" stop-opacity="1"></stop><stop offset="80%" stop-color="#96446e" stop-opacity="1"></stop></linearGradient></defs><defs><linearGradient id="grad1_2" x1="33.3%" y1="0%" x2="100%" y2="100%"><stop offset="20%" stop-color="#001220" stop-opacity="1"></stop><stop offset="80%" stop-color="#96446e" stop-opacity="1"></stop></linearGradient></defs><defs><linearGradient id="grad2_0" x1="0%" y1="0%" x2="66.7%" y2="100%"><stop offset="20%" stop-color="#fbae3c" stop-opacity="1"></stop><stop offset="80%" stop-color="#fbae3c" stop-opacity="1"></stop></linearGradient></defs><defs><linearGradient id="grad2_1" x1="0%" y1="0%" x2="66.7%" y2="100%"><stop offset="20%" stop-color="#96446e" stop-opacity="1"></stop><stop offset="80%" stop-color="#fbae3c" stop-opacity="1"></stop></linearGradient></defs><defs><linearGradient id="grad2_2" x1="0%" y1="0%" x2="66.7%" y2="100%"><stop offset="20%" stop-color="#96446e" stop-opacity="1"></stop><stop offset="80%" stop-color="#001220" stop-opacity="1"></stop></linearGradient></defs><g transform="translate(900, 0)"><path d="M0 486.7C-50 439.3 -100 391.9 -151.5 365.9C-203.1 339.8 -256.2 335 -310.4 310.4C-364.7 285.8 -420.1 241.3 -449.7 186.3C-479.3 131.2 -483 65.6 -486.7 0L0 0Z" fill="#3d3056"></path><path d="M0 324.5C-33.3 292.9 -66.7 261.3 -101 243.9C-135.4 226.5 -170.8 223.4 -206.9 206.9C-243.1 190.5 -280.1 160.9 -299.8 124.2C-319.5 87.5 -322 43.7 -324.5 0L0 0Z" fill="#e1685e"></path><path d="M0 162.2C-16.7 146.4 -33.3 130.6 -50.5 122C-67.7 113.3 -85.4 111.7 -103.5 103.5C-121.6 95.3 -140 80.4 -149.9 62.1C-159.8 43.7 -161 21.9 -162.2 0L0 0Z" fill="#fbae3c"></path></g><g transform="translate(0, 600)"><path d="M0 -486.7C69.8 -486.5 139.6 -486.3 186.3 -449.7C232.9 -413.1 256.5 -340.1 289.2 -289.2C321.9 -238.3 363.7 -209.5 398.2 -164.9C432.6 -120.4 459.7 -60.2 486.7 0L0 0Z" fill="#3d3056"></path><path d="M0 -324.5C46.5 -324.3 93.1 -324.2 124.2 -299.8C155.3 -275.4 171 -226.7 192.8 -192.8C214.6 -158.9 242.5 -139.6 265.5 -110C288.4 -80.3 306.5 -40.1 324.5 0L0 0Z" fill="#e1685e"></path><path d="M0 -162.2C23.3 -162.2 46.5 -162.1 62.1 -149.9C77.6 -137.7 85.5 -113.4 96.4 -96.4C107.3 -79.4 121.2 -69.8 132.7 -55C144.2 -40.1 153.2 -20.1 162.2 0L0 0Z" fill="#fbae3c"></path></g></svg>